<?xml version="1.0" encoding="UTF-8"?>
<svg xmlns="http://www.w3.org/2000/svg" xmlns:xlink="http://www.w3.org/1999/xlink" width="500" height="500" viewBox="0 0 500 500">
<path fill="none" stroke-width="0.02" stroke-linecap="butt" stroke-linejoin="miter" stroke="rgb(66.666667%, 5.490196%, 5.490196%)" stroke-opacity="1" stroke-miterlimit="10" d="M 0.001 0.5 C 0.001 0.497492 0.00476562 0.497492 0.00476562 0.5 " transform="matrix(500, 0, 0, 500, 0, 0)"/>
<path fill="none" stroke-width="0.02" stroke-linecap="butt" stroke-linejoin="miter" stroke="rgb(66.666667%, 5.490196%, 5.490196%)" stroke-opacity="1" stroke-miterlimit="10" d="M 0.0122969 0.5 C 0.0122969 0.505023 0.00476562 0.505023 0.00476562 0.5 " transform="matrix(500, 0, 0, 500, 0, 0)"/>
<path fill="none" stroke-width="0.02" stroke-linecap="butt" stroke-linejoin="miter" stroke="rgb(66.666667%, 5.490196%, 5.490196%)" stroke-opacity="1" stroke-miterlimit="10" d="M 0.0122969 0.5 C 0.0122969 0.492469 0.0236016 0.492469 0.0236016 0.5 " transform="matrix(500, 0, 0, 500, 0, 0)"/>
<path fill="none" stroke-width="0.02" stroke-linecap="butt" stroke-linejoin="miter" stroke="rgb(66.666667%, 5.490196%, 5.490196%)" stroke-opacity="1" stroke-miterlimit="10" d="M 0.0236016 0.5 C 0.0236016 0.510047 0.00853125 0.510047 0.00853125 0.5 " transform="matrix(500, 0, 0, 500, 0, 0)"/>
<path fill="none" stroke-width="0.02" stroke-linecap="butt" stroke-linejoin="miter" stroke="rgb(66.666667%, 5.490196%, 5.490196%)" stroke-opacity="1" stroke-miterlimit="10" d="M 0.00853125 0.5 C 0.00853125 0.487445 0.0273672 0.487445 0.0273672 0.5 " transform="matrix(500, 0, 0, 500, 0, 0)"/>
<path fill="none" stroke-width="0.02" stroke-linecap="butt" stroke-linejoin="miter" stroke="rgb(66.666667%, 5.490196%, 5.490196%)" stroke-opacity="1" stroke-miterlimit="10" d="M 0.0499609 0.5 C 0.0499609 0.506242 0.0449063 0.511297 0.0386641 0.511297 C 0.0324219 0.511297 0.0273672 0.506242 0.0273672 0.5 " transform="matrix(500, 0, 0, 500, 0, 0)"/>
<path fill="none" stroke-width="0.02" stroke-linecap="butt" stroke-linejoin="miter" stroke="rgb(66.666667%, 5.490196%, 5.490196%)" stroke-opacity="1" stroke-miterlimit="10" d="M 0.0499609 0.5 C 0.0499609 0.492719 0.0558672 0.48682 0.0631484 0.48682 C 0.0704297 0.48682 0.0763281 0.492719 0.0763281 0.5 " transform="matrix(500, 0, 0, 500, 0, 0)"/>
<path fill="none" stroke-width="0.02" stroke-linecap="butt" stroke-linejoin="miter" stroke="rgb(66.666667%, 5.490196%, 5.490196%)" stroke-opacity="1" stroke-miterlimit="10" d="M 0.0763281 0.5 C 0.0763281 0.50832 0.0695859 0.515062 0.0612656 0.515062 C 0.0529453 0.515062 0.0461953 0.50832 0.0461953 0.5 " transform="matrix(500, 0, 0, 500, 0, 0)"/>
<path fill="none" stroke-width="0.02" stroke-linecap="butt" stroke-linejoin="miter" stroke="rgb(66.666667%, 5.490196%, 5.490196%)" stroke-opacity="1" stroke-miterlimit="10" d="M 0.0461953 0.5 C 0.0461953 0.490641 0.0537891 0.483055 0.0631484 0.483055 C 0.0725078 0.483055 0.0800938 0.490641 0.0800938 0.5 " transform="matrix(500, 0, 0, 500, 0, 0)"/>
<path fill="none" stroke-width="0.02" stroke-linecap="butt" stroke-linejoin="miter" stroke="rgb(66.666667%, 5.490196%, 5.490196%)" stroke-opacity="1" stroke-miterlimit="10" d="M 0.0800938 0.5 C 0.0800938 0.510398 0.0716641 0.518836 0.0612656 0.518836 C 0.0508594 0.518836 0.0424297 0.510398 0.0424297 0.5 " transform="matrix(500, 0, 0, 500, 0, 0)"/>
<path fill="none" stroke-width="0.02" stroke-linecap="butt" stroke-linejoin="miter" stroke="rgb(66.666667%, 5.490196%, 5.490196%)" stroke-opacity="1" stroke-miterlimit="10" d="M 0.0424297 0.5 C 0.0424297 0.488563 0.0517031 0.479281 0.0631484 0.479281 C 0.0745859 0.479281 0.0838594 0.488563 0.0838594 0.5 " transform="matrix(500, 0, 0, 500, 0, 0)"/>
<path fill="none" stroke-width="0.02" stroke-linecap="butt" stroke-linejoin="miter" stroke="rgb(66.666667%, 5.490196%, 5.490196%)" stroke-opacity="1" stroke-miterlimit="10" d="M 0.0838594 0.5 C 0.0838594 0.512484 0.0737422 0.522602 0.0612656 0.522602 C 0.0487812 0.522602 0.0386641 0.512484 0.0386641 0.5 " transform="matrix(500, 0, 0, 500, 0, 0)"/>
<path fill="none" stroke-width="0.02" stroke-linecap="butt" stroke-linejoin="miter" stroke="rgb(66.666667%, 5.490196%, 5.490196%)" stroke-opacity="1" stroke-miterlimit="10" d="M 0.0386641 0.5 C 0.0386641 0.486477 0.049625 0.475516 0.0631484 0.475516 C 0.0766719 0.475516 0.0876328 0.486477 0.0876328 0.5 " transform="matrix(500, 0, 0, 500, 0, 0)"/>
<path fill="none" stroke-width="0.02" stroke-linecap="butt" stroke-linejoin="miter" stroke="rgb(66.666667%, 5.490196%, 5.490196%)" stroke-opacity="1" stroke-miterlimit="10" d="M 0.0876328 0.5 C 0.0876328 0.514563 0.0758281 0.526367 0.0612656 0.526367 C 0.0467031 0.526367 0.0348984 0.514563 0.0348984 0.5 " transform="matrix(500, 0, 0, 500, 0, 0)"/>
<path fill="none" stroke-width="0.02" stroke-linecap="butt" stroke-linejoin="miter" stroke="rgb(66.666667%, 5.490196%, 5.490196%)" stroke-opacity="1" stroke-miterlimit="10" d="M 0.0348984 0.5 C 0.0348984 0.484398 0.0475469 0.47175 0.0631484 0.47175 C 0.07875 0.47175 0.0913984 0.484398 0.0913984 0.5 " transform="matrix(500, 0, 0, 500, 0, 0)"/>
<path fill="none" stroke-width="0.02" stroke-linecap="butt" stroke-linejoin="miter" stroke="rgb(66.666667%, 5.490196%, 5.490196%)" stroke-opacity="1" stroke-miterlimit="10" d="M 0.0913984 0.5 C 0.0913984 0.516641 0.0779062 0.530133 0.0612656 0.530133 C 0.044625 0.530133 0.0311328 0.516641 0.0311328 0.5 " transform="matrix(500, 0, 0, 500, 0, 0)"/>
<path fill="none" stroke-width="0.02" stroke-linecap="butt" stroke-linejoin="miter" stroke="rgb(66.666667%, 5.490196%, 5.490196%)" stroke-opacity="1" stroke-miterlimit="10" d="M 0.0311328 0.5 C 0.0311328 0.48232 0.0454688 0.467984 0.0631484 0.467984 C 0.0808281 0.467984 0.0951641 0.48232 0.0951641 0.5 " transform="matrix(500, 0, 0, 500, 0, 0)"/>
<path fill="none" stroke-width="0.02" stroke-linecap="butt" stroke-linejoin="miter" stroke="rgb(66.666667%, 5.490196%, 5.490196%)" stroke-opacity="1" stroke-miterlimit="10" d="M 0.162961 0.5 C 0.162961 0.518719 0.147781 0.533898 0.129062 0.533898 C 0.110336 0.533898 0.0951641 0.518719 0.0951641 0.5 " transform="matrix(500, 0, 0, 500, 0, 0)"/>
<path fill="none" stroke-width="0.02" stroke-linecap="butt" stroke-linejoin="miter" stroke="rgb(66.666667%, 5.490196%, 5.490196%)" stroke-opacity="1" stroke-miterlimit="10" d="M 0.162961 0.5 C 0.162961 0.480242 0.178977 0.464219 0.198742 0.464219 C 0.2185 0.464219 0.234523 0.480242 0.234523 0.5 " transform="matrix(500, 0, 0, 500, 0, 0)"/>
<path fill="none" stroke-width="0.02" stroke-linecap="butt" stroke-linejoin="miter" stroke="rgb(66.666667%, 5.490196%, 5.490196%)" stroke-opacity="1" stroke-miterlimit="10" d="M 0.234523 0.5 C 0.234523 0.520805 0.217656 0.537664 0.196859 0.537664 C 0.176055 0.537664 0.159195 0.520805 0.159195 0.5 " transform="matrix(500, 0, 0, 500, 0, 0)"/>
<path fill="none" stroke-width="0.02" stroke-linecap="butt" stroke-linejoin="miter" stroke="rgb(66.666667%, 5.490196%, 5.490196%)" stroke-opacity="1" stroke-miterlimit="10" d="M 0.159195 0.5 C 0.159195 0.478156 0.176898 0.460453 0.198742 0.460453 C 0.220578 0.460453 0.238289 0.478156 0.238289 0.5 " transform="matrix(500, 0, 0, 500, 0, 0)"/>
<path fill="none" stroke-width="0.02" stroke-linecap="butt" stroke-linejoin="miter" stroke="rgb(66.666667%, 5.490196%, 5.490196%)" stroke-opacity="1" stroke-miterlimit="10" d="M 0.238289 0.5 C 0.238289 0.522883 0.219742 0.54143 0.196859 0.54143 C 0.173977 0.54143 0.155422 0.522883 0.155422 0.5 " transform="matrix(500, 0, 0, 500, 0, 0)"/>
<path fill="none" stroke-width="0.02" stroke-linecap="butt" stroke-linejoin="miter" stroke="rgb(66.666667%, 5.490196%, 5.490196%)" stroke-opacity="1" stroke-miterlimit="10" d="M 0.0687969 0.5 C 0.0687969 0.476078 0.0881875 0.456688 0.112109 0.456688 C 0.136031 0.456688 0.155422 0.476078 0.155422 0.5 " transform="matrix(500, 0, 0, 500, 0, 0)"/>
<path fill="none" stroke-width="0.02" stroke-linecap="butt" stroke-linejoin="miter" stroke="rgb(66.666667%, 5.490196%, 5.490196%)" stroke-opacity="1" stroke-miterlimit="10" d="M 0.159195 0.5 C 0.159195 0.524961 0.138953 0.545195 0.113992 0.545195 C 0.0890313 0.545195 0.0687969 0.524961 0.0687969 0.5 " transform="matrix(500, 0, 0, 500, 0, 0)"/>
<path fill="none" stroke-width="0.02" stroke-linecap="butt" stroke-linejoin="miter" stroke="rgb(66.666667%, 5.490196%, 5.490196%)" stroke-opacity="1" stroke-miterlimit="10" d="M 0.0650312 0.5 C 0.0650312 0.474 0.0861094 0.452922 0.112109 0.452922 C 0.138109 0.452922 0.159195 0.474 0.159195 0.5 " transform="matrix(500, 0, 0, 500, 0, 0)"/>
<path fill="none" stroke-width="0.02" stroke-linecap="butt" stroke-linejoin="miter" stroke="rgb(66.666667%, 5.490196%, 5.490196%)" stroke-opacity="1" stroke-miterlimit="10" d="M 0.162961 0.5 C 0.162961 0.527039 0.141039 0.548961 0.113992 0.548961 C 0.0869531 0.548961 0.0650312 0.527039 0.0650312 0.5 " transform="matrix(500, 0, 0, 500, 0, 0)"/>
<path fill="none" stroke-width="0.02" stroke-linecap="butt" stroke-linejoin="miter" stroke="rgb(66.666667%, 5.490196%, 5.490196%)" stroke-opacity="1" stroke-miterlimit="10" d="M 0.0612656 0.5 C 0.0612656 0.471914 0.0840313 0.449156 0.112109 0.449156 C 0.140195 0.449156 0.162961 0.471914 0.162961 0.5 " transform="matrix(500, 0, 0, 500, 0, 0)"/>
<path fill="none" stroke-width="0.02" stroke-linecap="butt" stroke-linejoin="miter" stroke="rgb(66.666667%, 5.490196%, 5.490196%)" stroke-opacity="1" stroke-miterlimit="10" d="M 0.166727 0.5 C 0.166727 0.529125 0.143117 0.552734 0.113992 0.552734 C 0.084875 0.552734 0.0612656 0.529125 0.0612656 0.5 " transform="matrix(500, 0, 0, 500, 0, 0)"/>
<path fill="none" stroke-width="0.02" stroke-linecap="butt" stroke-linejoin="miter" stroke="rgb(66.666667%, 5.490196%, 5.490196%)" stroke-opacity="1" stroke-miterlimit="10" d="M 0.0575 0.5 C 0.0575 0.469836 0.0819453 0.445383 0.112109 0.445383 C 0.142273 0.445383 0.166727 0.469836 0.166727 0.5 " transform="matrix(500, 0, 0, 500, 0, 0)"/>
<path fill="none" stroke-width="0.02" stroke-linecap="butt" stroke-linejoin="miter" stroke="rgb(66.666667%, 5.490196%, 5.490196%)" stroke-opacity="1" stroke-miterlimit="10" d="M 0.170492 0.5 C 0.170492 0.531203 0.145195 0.5565 0.113992 0.5565 C 0.0827891 0.5565 0.0575 0.531203 0.0575 0.5 " transform="matrix(500, 0, 0, 500, 0, 0)"/>
<path fill="none" stroke-width="0.02" stroke-linecap="butt" stroke-linejoin="miter" stroke="rgb(66.666667%, 5.490196%, 5.490196%)" stroke-opacity="1" stroke-miterlimit="10" d="M 0.0537344 0.5 C 0.0537344 0.467758 0.0798672 0.441617 0.112109 0.441617 C 0.144352 0.441617 0.170492 0.467758 0.170492 0.5 " transform="matrix(500, 0, 0, 500, 0, 0)"/>
<path fill="none" stroke-width="0.02" stroke-linecap="butt" stroke-linejoin="miter" stroke="rgb(66.666667%, 5.490196%, 5.490196%)" stroke-opacity="1" stroke-miterlimit="10" d="M 0.174258 0.5 C 0.174258 0.533281 0.147273 0.560266 0.113992 0.560266 C 0.0807109 0.560266 0.0537344 0.533281 0.0537344 0.5 " transform="matrix(500, 0, 0, 500, 0, 0)"/>
<path fill="none" stroke-width="0.02" stroke-linecap="butt" stroke-linejoin="miter" stroke="rgb(66.666667%, 5.490196%, 5.490196%)" stroke-opacity="1" stroke-miterlimit="10" d="M 0.174258 0.5 C 0.174258 0.46568 0.202086 0.437852 0.236406 0.437852 C 0.270727 0.437852 0.298555 0.46568 0.298555 0.5 " transform="matrix(500, 0, 0, 500, 0, 0)"/>
<path fill="none" stroke-width="0.02" stroke-linecap="butt" stroke-linejoin="miter" stroke="rgb(66.666667%, 5.490196%, 5.490196%)" stroke-opacity="1" stroke-miterlimit="10" d="M 0.426609 0.5 C 0.426609 0.535359 0.397945 0.564031 0.362578 0.564031 C 0.327219 0.564031 0.298555 0.535359 0.298555 0.5 " transform="matrix(500, 0, 0, 500, 0, 0)"/>
<path fill="none" stroke-width="0.02" stroke-linecap="butt" stroke-linejoin="miter" stroke="rgb(66.666667%, 5.490196%, 5.490196%)" stroke-opacity="1" stroke-miterlimit="10" d="M 0.294789 0.5 C 0.294789 0.463594 0.324297 0.434086 0.360695 0.434086 C 0.397102 0.434086 0.426609 0.463594 0.426609 0.5 " transform="matrix(500, 0, 0, 500, 0, 0)"/>
<path fill="none" stroke-width="0.02" stroke-linecap="butt" stroke-linejoin="miter" stroke="rgb(66.666667%, 5.490196%, 5.490196%)" stroke-opacity="1" stroke-miterlimit="10" d="M 0.430375 0.5 C 0.430375 0.537445 0.400023 0.567797 0.362578 0.567797 C 0.325141 0.567797 0.294789 0.537445 0.294789 0.5 " transform="matrix(500, 0, 0, 500, 0, 0)"/>
<path fill="none" stroke-width="0.02" stroke-linecap="butt" stroke-linejoin="miter" stroke="rgb(66.666667%, 5.490196%, 5.490196%)" stroke-opacity="1" stroke-miterlimit="10" d="M 0.291016 0.5 C 0.291016 0.461516 0.322219 0.43032 0.360695 0.43032 C 0.39918 0.43032 0.430375 0.461516 0.430375 0.5 " transform="matrix(500, 0, 0, 500, 0, 0)"/>
<path fill="none" stroke-width="0.02" stroke-linecap="butt" stroke-linejoin="miter" stroke="rgb(66.666667%, 5.490196%, 5.490196%)" stroke-opacity="1" stroke-miterlimit="10" d="M 0.291016 0.5 C 0.291016 0.539523 0.258977 0.571562 0.219453 0.571562 C 0.17993 0.571562 0.147891 0.539523 0.147891 0.5 " transform="matrix(500, 0, 0, 500, 0, 0)"/>
<path fill="none" stroke-width="0.02" stroke-linecap="butt" stroke-linejoin="miter" stroke="rgb(66.666667%, 5.490196%, 5.490196%)" stroke-opacity="1" stroke-miterlimit="10" d="M 0.147891 0.5 C 0.147891 0.459437 0.180773 0.426555 0.221336 0.426555 C 0.261898 0.426555 0.294789 0.459437 0.294789 0.5 " transform="matrix(500, 0, 0, 500, 0, 0)"/>
<path fill="none" stroke-width="0.02" stroke-linecap="butt" stroke-linejoin="miter" stroke="rgb(66.666667%, 5.490196%, 5.490196%)" stroke-opacity="1" stroke-miterlimit="10" d="M 0.294789 0.5 C 0.294789 0.541602 0.261063 0.575328 0.219453 0.575328 C 0.177852 0.575328 0.144125 0.541602 0.144125 0.5 " transform="matrix(500, 0, 0, 500, 0, 0)"/>
<path fill="none" stroke-width="0.02" stroke-linecap="butt" stroke-linejoin="miter" stroke="rgb(66.666667%, 5.490196%, 5.490196%)" stroke-opacity="1" stroke-miterlimit="10" d="M 0.144125 0.5 C 0.144125 0.457359 0.178695 0.422789 0.221336 0.422789 C 0.263984 0.422789 0.298555 0.457359 0.298555 0.5 " transform="matrix(500, 0, 0, 500, 0, 0)"/>
<path fill="none" stroke-width="0.02" stroke-linecap="butt" stroke-linejoin="miter" stroke="rgb(66.666667%, 5.490196%, 5.490196%)" stroke-opacity="1" stroke-miterlimit="10" d="M 0.298555 0.5 C 0.298555 0.54368 0.263141 0.579094 0.219453 0.579094 C 0.175773 0.579094 0.140359 0.54368 0.140359 0.5 " transform="matrix(500, 0, 0, 500, 0, 0)"/>
<path fill="none" stroke-width="0.02" stroke-linecap="butt" stroke-linejoin="miter" stroke="rgb(66.666667%, 5.490196%, 5.490196%)" stroke-opacity="1" stroke-miterlimit="10" d="M 0.140359 0.5 C 0.140359 0.455273 0.176617 0.419023 0.221336 0.419023 C 0.266062 0.419023 0.30232 0.455273 0.30232 0.5 " transform="matrix(500, 0, 0, 500, 0, 0)"/>
<path fill="none" stroke-width="0.02" stroke-linecap="butt" stroke-linejoin="miter" stroke="rgb(66.666667%, 5.490196%, 5.490196%)" stroke-opacity="1" stroke-miterlimit="10" d="M 0.30232 0.5 C 0.30232 0.545766 0.265219 0.582859 0.219453 0.582859 C 0.173695 0.582859 0.136594 0.545766 0.136594 0.5 " transform="matrix(500, 0, 0, 500, 0, 0)"/>
<path fill="none" stroke-width="0.02" stroke-linecap="butt" stroke-linejoin="miter" stroke="rgb(66.666667%, 5.490196%, 5.490196%)" stroke-opacity="1" stroke-miterlimit="10" d="M 0.136594 0.5 C 0.136594 0.453195 0.174539 0.415258 0.221336 0.415258 C 0.268141 0.415258 0.306086 0.453195 0.306086 0.5 " transform="matrix(500, 0, 0, 500, 0, 0)"/>
<path fill="none" stroke-width="0.02" stroke-linecap="butt" stroke-linejoin="miter" stroke="rgb(66.666667%, 5.490196%, 5.490196%)" stroke-opacity="1" stroke-miterlimit="10" d="M 0.306086 0.5 C 0.306086 0.547844 0.267297 0.586633 0.219453 0.586633 C 0.171609 0.586633 0.132828 0.547844 0.132828 0.5 " transform="matrix(500, 0, 0, 500, 0, 0)"/>
<path fill="none" stroke-width="0.02" stroke-linecap="butt" stroke-linejoin="miter" stroke="rgb(66.666667%, 5.490196%, 5.490196%)" stroke-opacity="1" stroke-miterlimit="10" d="M 0.132828 0.5 C 0.132828 0.451117 0.172453 0.411484 0.221336 0.411484 C 0.270227 0.411484 0.309852 0.451117 0.309852 0.5 " transform="matrix(500, 0, 0, 500, 0, 0)"/>
<path fill="none" stroke-width="0.02" stroke-linecap="butt" stroke-linejoin="miter" stroke="rgb(66.666667%, 5.490196%, 5.490196%)" stroke-opacity="1" stroke-miterlimit="10" d="M 0.309852 0.5 C 0.309852 0.549922 0.269383 0.590398 0.219453 0.590398 C 0.169531 0.590398 0.129062 0.549922 0.129062 0.5 " transform="matrix(500, 0, 0, 500, 0, 0)"/>
<path fill="none" stroke-width="0.02" stroke-linecap="butt" stroke-linejoin="miter" stroke="rgb(66.666667%, 5.490196%, 5.490196%)" stroke-opacity="1" stroke-miterlimit="10" d="M 0.129062 0.5 C 0.129062 0.449039 0.170375 0.407719 0.221336 0.407719 C 0.272305 0.407719 0.313617 0.449039 0.313617 0.5 " transform="matrix(500, 0, 0, 500, 0, 0)"/>
<path fill="none" stroke-width="0.02" stroke-linecap="butt" stroke-linejoin="miter" stroke="rgb(66.666667%, 5.490196%, 5.490196%)" stroke-opacity="1" stroke-miterlimit="10" d="M 0.313617 0.5 C 0.313617 0.552008 0.271461 0.594164 0.219453 0.594164 C 0.167453 0.594164 0.125297 0.552008 0.125297 0.5 " transform="matrix(500, 0, 0, 500, 0, 0)"/>
<path fill="none" stroke-width="0.02" stroke-linecap="butt" stroke-linejoin="miter" stroke="rgb(66.666667%, 5.490196%, 5.490196%)" stroke-opacity="1" stroke-miterlimit="10" d="M 0.125297 0.5 C 0.125297 0.446953 0.168297 0.403953 0.221336 0.403953 C 0.274383 0.403953 0.317383 0.446953 0.317383 0.5 " transform="matrix(500, 0, 0, 500, 0, 0)"/>
<path fill="none" stroke-width="0.02" stroke-linecap="butt" stroke-linejoin="miter" stroke="rgb(66.666667%, 5.490196%, 5.490196%)" stroke-opacity="1" stroke-miterlimit="10" d="M 0.317383 0.5 C 0.317383 0.554086 0.273539 0.59793 0.219453 0.59793 C 0.165375 0.59793 0.121523 0.554086 0.121523 0.5 " transform="matrix(500, 0, 0, 500, 0, 0)"/>
<path fill="none" stroke-width="0.02" stroke-linecap="butt" stroke-linejoin="miter" stroke="rgb(66.666667%, 5.490196%, 5.490196%)" stroke-opacity="1" stroke-miterlimit="10" d="M 0.121523 0.5 C 0.121523 0.444875 0.166211 0.400188 0.221336 0.400188 C 0.276461 0.400188 0.321148 0.444875 0.321148 0.5 " transform="matrix(500, 0, 0, 500, 0, 0)"/>
<path fill="none" stroke-width="0.02" stroke-linecap="butt" stroke-linejoin="miter" stroke="rgb(66.666667%, 5.490196%, 5.490196%)" stroke-opacity="1" stroke-miterlimit="10" d="M 0.321148 0.5 C 0.321148 0.556164 0.275617 0.601695 0.219453 0.601695 C 0.163289 0.601695 0.117758 0.556164 0.117758 0.5 " transform="matrix(500, 0, 0, 500, 0, 0)"/>
<path fill="none" stroke-width="0.02" stroke-linecap="butt" stroke-linejoin="miter" stroke="rgb(66.666667%, 5.490196%, 5.490196%)" stroke-opacity="1" stroke-miterlimit="10" d="M 0.117758 0.5 C 0.117758 0.442797 0.164133 0.396422 0.221336 0.396422 C 0.278547 0.396422 0.324914 0.442797 0.324914 0.5 " transform="matrix(500, 0, 0, 500, 0, 0)"/>
<path fill="none" stroke-width="0.02" stroke-linecap="butt" stroke-linejoin="miter" stroke="rgb(66.666667%, 5.490196%, 5.490196%)" stroke-opacity="1" stroke-miterlimit="10" d="M 0.324914 0.5 C 0.324914 0.558242 0.277703 0.605461 0.219453 0.605461 C 0.161211 0.605461 0.113992 0.558242 0.113992 0.5 " transform="matrix(500, 0, 0, 500, 0, 0)"/>
<path fill="none" stroke-width="0.02" stroke-linecap="butt" stroke-linejoin="miter" stroke="rgb(66.666667%, 5.490196%, 5.490196%)" stroke-opacity="1" stroke-miterlimit="10" d="M 0.113992 0.5 C 0.113992 0.440719 0.162055 0.392656 0.221336 0.392656 C 0.280625 0.392656 0.328688 0.440719 0.328688 0.5 " transform="matrix(500, 0, 0, 500, 0, 0)"/>
<path fill="none" stroke-width="0.02" stroke-linecap="butt" stroke-linejoin="miter" stroke="rgb(66.666667%, 5.490196%, 5.490196%)" stroke-opacity="1" stroke-miterlimit="10" d="M 0.328688 0.5 C 0.328688 0.560328 0.279781 0.609227 0.219453 0.609227 C 0.159133 0.609227 0.110227 0.560328 0.110227 0.5 " transform="matrix(500, 0, 0, 500, 0, 0)"/>
<path fill="none" stroke-width="0.02" stroke-linecap="butt" stroke-linejoin="miter" stroke="rgb(66.666667%, 5.490196%, 5.490196%)" stroke-opacity="1" stroke-miterlimit="10" d="M 0.110227 0.5 C 0.110227 0.438633 0.159977 0.388891 0.221336 0.388891 C 0.282703 0.388891 0.332453 0.438633 0.332453 0.5 " transform="matrix(500, 0, 0, 500, 0, 0)"/>
<path fill="none" stroke-width="0.02" stroke-linecap="butt" stroke-linejoin="miter" stroke="rgb(66.666667%, 5.490196%, 5.490196%)" stroke-opacity="1" stroke-miterlimit="10" d="M 0.332453 0.5 C 0.332453 0.562406 0.281859 0.612992 0.219453 0.612992 C 0.157047 0.612992 0.106461 0.562406 0.106461 0.5 " transform="matrix(500, 0, 0, 500, 0, 0)"/>
<path fill="none" stroke-width="0.02" stroke-linecap="butt" stroke-linejoin="miter" stroke="rgb(66.666667%, 5.490196%, 5.490196%)" stroke-opacity="1" stroke-miterlimit="10" d="M 0.106461 0.5 C 0.106461 0.436555 0.157891 0.385125 0.221336 0.385125 C 0.284781 0.385125 0.336219 0.436555 0.336219 0.5 " transform="matrix(500, 0, 0, 500, 0, 0)"/>
<path fill="none" stroke-width="0.02" stroke-linecap="butt" stroke-linejoin="miter" stroke="rgb(66.666667%, 5.490196%, 5.490196%)" stroke-opacity="1" stroke-miterlimit="10" d="M 0.336219 0.5 C 0.336219 0.564484 0.283938 0.616758 0.219453 0.616758 C 0.154969 0.616758 0.102695 0.564484 0.102695 0.5 " transform="matrix(500, 0, 0, 500, 0, 0)"/>
<path fill="none" stroke-width="0.02" stroke-linecap="butt" stroke-linejoin="miter" stroke="rgb(66.666667%, 5.490196%, 5.490196%)" stroke-opacity="1" stroke-miterlimit="10" d="M 0.102695 0.5 C 0.102695 0.434477 0.155812 0.381359 0.221336 0.381359 C 0.286867 0.381359 0.339984 0.434477 0.339984 0.5 " transform="matrix(500, 0, 0, 500, 0, 0)"/>
<path fill="none" stroke-width="0.02" stroke-linecap="butt" stroke-linejoin="miter" stroke="rgb(66.666667%, 5.490196%, 5.490196%)" stroke-opacity="1" stroke-miterlimit="10" d="M 0.339984 0.5 C 0.339984 0.566562 0.286023 0.620523 0.219453 0.620523 C 0.152891 0.620523 0.0989297 0.566562 0.0989297 0.5 " transform="matrix(500, 0, 0, 500, 0, 0)"/>
<path fill="none" stroke-width="0.02" stroke-linecap="butt" stroke-linejoin="miter" stroke="rgb(66.666667%, 5.490196%, 5.490196%)" stroke-opacity="1" stroke-miterlimit="10" d="M 0.0989297 0.5 C 0.0989297 0.432391 0.153734 0.377586 0.221336 0.377586 C 0.288945 0.377586 0.34375 0.432391 0.34375 0.5 " transform="matrix(500, 0, 0, 500, 0, 0)"/>
<path fill="none" stroke-width="0.02" stroke-linecap="butt" stroke-linejoin="miter" stroke="rgb(66.666667%, 5.490196%, 5.490196%)" stroke-opacity="1" stroke-miterlimit="10" d="M 0.592336 0.5 C 0.592336 0.568648 0.536687 0.624297 0.468047 0.624297 C 0.399398 0.624297 0.34375 0.568648 0.34375 0.5 " transform="matrix(500, 0, 0, 500, 0, 0)"/>
<path fill="none" stroke-width="0.02" stroke-linecap="butt" stroke-linejoin="miter" stroke="rgb(66.666667%, 5.490196%, 5.490196%)" stroke-opacity="1" stroke-miterlimit="10" d="M 0.592336 0.5 C 0.592336 0.430312 0.648828 0.37382 0.718516 0.37382 C 0.788203 0.37382 0.844688 0.430312 0.844688 0.5 " transform="matrix(500, 0, 0, 500, 0, 0)"/>
<path fill="none" stroke-width="0.02" stroke-linecap="butt" stroke-linejoin="miter" stroke="rgb(66.666667%, 5.490196%, 5.490196%)" stroke-opacity="1" stroke-miterlimit="10" d="M 0.844688 0.5 C 0.844688 0.570727 0.787359 0.628062 0.716633 0.628062 C 0.645906 0.628062 0.58857 0.570727 0.58857 0.5 " transform="matrix(500, 0, 0, 500, 0, 0)"/>
<path fill="none" stroke-width="0.02" stroke-linecap="butt" stroke-linejoin="miter" stroke="rgb(66.666667%, 5.490196%, 5.490196%)" stroke-opacity="1" stroke-miterlimit="10" d="M 0.58857 0.5 C 0.58857 0.428234 0.64675 0.370055 0.718516 0.370055 C 0.790281 0.370055 0.848461 0.428234 0.848461 0.5 " transform="matrix(500, 0, 0, 500, 0, 0)"/>
<path fill="none" stroke-width="0.02" stroke-linecap="butt" stroke-linejoin="miter" stroke="rgb(66.666667%, 5.490196%, 5.490196%)" stroke-opacity="1" stroke-miterlimit="10" d="M 0.848461 0.5 C 0.848461 0.572805 0.789438 0.631828 0.716633 0.631828 C 0.643828 0.631828 0.584805 0.572805 0.584805 0.5 " transform="matrix(500, 0, 0, 500, 0, 0)"/>
<path fill="none" stroke-width="0.02" stroke-linecap="butt" stroke-linejoin="miter" stroke="rgb(66.666667%, 5.490196%, 5.490196%)" stroke-opacity="1" stroke-miterlimit="10" d="M 0.584805 0.5 C 0.584805 0.426156 0.644672 0.366289 0.718516 0.366289 C 0.792359 0.366289 0.852227 0.426156 0.852227 0.5 " transform="matrix(500, 0, 0, 500, 0, 0)"/>
<path fill="none" stroke-width="0.02" stroke-linecap="butt" stroke-linejoin="miter" stroke="rgb(66.666667%, 5.490196%, 5.490196%)" stroke-opacity="1" stroke-miterlimit="10" d="M 0.852227 0.5 C 0.852227 0.574883 0.791516 0.635594 0.716633 0.635594 C 0.641742 0.635594 0.581039 0.574883 0.581039 0.5 " transform="matrix(500, 0, 0, 500, 0, 0)"/>
<path fill="none" stroke-width="0.02" stroke-linecap="butt" stroke-linejoin="miter" stroke="rgb(66.666667%, 5.490196%, 5.490196%)" stroke-opacity="1" stroke-miterlimit="10" d="M 0.581039 0.5 C 0.581039 0.42407 0.642586 0.362523 0.718516 0.362523 C 0.794438 0.362523 0.855992 0.42407 0.855992 0.5 " transform="matrix(500, 0, 0, 500, 0, 0)"/>
<path fill="none" stroke-width="0.02" stroke-linecap="butt" stroke-linejoin="miter" stroke="rgb(66.666667%, 5.490196%, 5.490196%)" stroke-opacity="1" stroke-miterlimit="10" d="M 0.855992 0.5 C 0.855992 0.576969 0.793594 0.639359 0.716633 0.639359 C 0.639664 0.639359 0.577273 0.576969 0.577273 0.5 " transform="matrix(500, 0, 0, 500, 0, 0)"/>
<path fill="none" stroke-width="0.02" stroke-linecap="butt" stroke-linejoin="miter" stroke="rgb(66.666667%, 5.490196%, 5.490196%)" stroke-opacity="1" stroke-miterlimit="10" d="M 0.577273 0.5 C 0.577273 0.421992 0.640508 0.358758 0.718516 0.358758 C 0.796523 0.358758 0.859758 0.421992 0.859758 0.5 " transform="matrix(500, 0, 0, 500, 0, 0)"/>
<path fill="none" stroke-width="0.02" stroke-linecap="butt" stroke-linejoin="miter" stroke="rgb(66.666667%, 5.490196%, 5.490196%)" stroke-opacity="1" stroke-miterlimit="10" d="M 0.859758 0.5 C 0.859758 0.579047 0.79568 0.643125 0.716633 0.643125 C 0.637586 0.643125 0.573508 0.579047 0.573508 0.5 " transform="matrix(500, 0, 0, 500, 0, 0)"/>
<path fill="none" stroke-width="0.02" stroke-linecap="butt" stroke-linejoin="miter" stroke="rgb(66.666667%, 5.490196%, 5.490196%)" stroke-opacity="1" stroke-miterlimit="10" d="M 0.283484 0.5 C 0.283484 0.419914 0.348406 0.354992 0.428492 0.354992 C 0.508578 0.354992 0.573508 0.419914 0.573508 0.5 " transform="matrix(500, 0, 0, 500, 0, 0)"/>
<path fill="none" stroke-width="0.02" stroke-linecap="butt" stroke-linejoin="miter" stroke="rgb(66.666667%, 5.490196%, 5.490196%)" stroke-opacity="1" stroke-miterlimit="10" d="M 0.577273 0.5 C 0.577273 0.581125 0.511508 0.646891 0.430375 0.646891 C 0.34925 0.646891 0.283484 0.581125 0.283484 0.5 " transform="matrix(500, 0, 0, 500, 0, 0)"/>
<path fill="none" stroke-width="0.02" stroke-linecap="butt" stroke-linejoin="miter" stroke="rgb(66.666667%, 5.490196%, 5.490196%)" stroke-opacity="1" stroke-miterlimit="10" d="M 0.279719 0.5 C 0.279719 0.417836 0.346328 0.351227 0.428492 0.351227 C 0.510664 0.351227 0.577273 0.417836 0.577273 0.5 " transform="matrix(500, 0, 0, 500, 0, 0)"/>
</svg>
