<?xml version="1.0" encoding="UTF-8"?>
<svg xmlns="http://www.w3.org/2000/svg" xmlns:xlink="http://www.w3.org/1999/xlink" width="500" height="500" viewBox="0 0 500 500">
<rect x="-50" y="-50" width="600" height="600" fill="rgb(0%, 0%, 0%)" fill-opacity="1"/>
<path fill="none" stroke-width="0.001" stroke-linecap="butt" stroke-linejoin="miter" stroke="rgb(99.987694%, 1.56875%, 20%)" stroke-opacity="1" stroke-miterlimit="10" d="M 0.039125 0.039125 C 0.0366094 0.0416328 0.0328437 0.0378672 0.0353516 0.0353516 " transform="matrix(500, 0, 0, 500, 0, 0)"/>
<path fill="none" stroke-width="0.001" stroke-linecap="butt" stroke-linejoin="miter" stroke="rgb(99.95078%, 3.137114%, 20%)" stroke-opacity="1" stroke-miterlimit="10" d="M 0.039125 0.039125 C 0.0441406 0.0341016 0.0516797 0.0416328 0.0466563 0.0466563 " transform="matrix(500, 0, 0, 500, 0, 0)"/>
<path fill="none" stroke-width="0.001" stroke-linecap="butt" stroke-linejoin="miter" stroke="rgb(99.889267%, 4.704706%, 20%)" stroke-opacity="1" stroke-miterlimit="10" d="M 0.0579531 0.0579531 C 0.0504219 0.0654844 0.039125 0.0541875 0.0466563 0.0466563 " transform="matrix(500, 0, 0, 500, 0, 0)"/>
<path fill="none" stroke-width="0.001" stroke-linecap="butt" stroke-linejoin="miter" stroke="rgb(99.80317%, 6.271141%, 20%)" stroke-opacity="1" stroke-miterlimit="10" d="M 0.0428906 0.0428906 C 0.0529297 0.0328437 0.068 0.0479141 0.0579531 0.0579531 " transform="matrix(500, 0, 0, 500, 0, 0)"/>
<path fill="none" stroke-width="0.001" stroke-linecap="butt" stroke-linejoin="miter" stroke="rgb(99.69251%, 7.836031%, 20%)" stroke-opacity="1" stroke-miterlimit="10" d="M 0.0617188 0.0617188 C 0.0565234 0.0669219 0.0480859 0.0669219 0.0428906 0.0617188 C 0.0376875 0.0565234 0.0376875 0.0480859 0.0428906 0.0428906 " transform="matrix(500, 0, 0, 500, 0, 0)"/>
<path fill="none" stroke-width="0.001" stroke-linecap="butt" stroke-linejoin="miter" stroke="rgb(99.557315%, 9.398994%, 20%)" stroke-opacity="1" stroke-miterlimit="10" d="M 0.0617188 0.0617188 C 0.0679609 0.0554766 0.0780781 0.0554766 0.0843203 0.0617188 C 0.0905625 0.0679609 0.0905625 0.0780781 0.0843203 0.0843203 " transform="matrix(500, 0, 0, 500, 0, 0)"/>
<path fill="none" stroke-width="0.001" stroke-linecap="butt" stroke-linejoin="miter" stroke="rgb(99.397617%, 10.959643%, 20%)" stroke-opacity="1" stroke-miterlimit="10" d="M 0.110688 0.110688 C 0.103406 0.117969 0.0916016 0.117969 0.0843203 0.110688 C 0.0770391 0.103406 0.0770391 0.0916016 0.0843203 0.0843203 " transform="matrix(500, 0, 0, 500, 0, 0)"/>
<path fill="none" stroke-width="0.001" stroke-linecap="butt" stroke-linejoin="miter" stroke="rgb(99.213456%, 12.517594%, 20%)" stroke-opacity="1" stroke-miterlimit="10" d="M 0.0805547 0.0805547 C 0.088875 0.0722344 0.102367 0.0722344 0.110688 0.0805547 C 0.119008 0.088875 0.119008 0.102367 0.110688 0.110688 " transform="matrix(500, 0, 0, 500, 0, 0)"/>
<path fill="none" stroke-width="0.001" stroke-linecap="butt" stroke-linejoin="miter" stroke="rgb(99.004877%, 14.072465%, 20%)" stroke-opacity="1" stroke-miterlimit="10" d="M 0.114453 0.114453 C 0.105094 0.123813 0.0899141 0.123813 0.0805547 0.114453 C 0.0711953 0.105094 0.0711953 0.0899141 0.0805547 0.0805547 " transform="matrix(500, 0, 0, 500, 0, 0)"/>
<path fill="none" stroke-width="0.001" stroke-linecap="butt" stroke-linejoin="miter" stroke="rgb(98.771932%, 15.623873%, 20%)" stroke-opacity="1" stroke-miterlimit="10" d="M 0.0767891 0.0767891 C 0.0871875 0.0663828 0.104047 0.0663828 0.114453 0.0767891 C 0.124852 0.0871875 0.124852 0.104047 0.114453 0.114453 " transform="matrix(500, 0, 0, 500, 0, 0)"/>
<path fill="none" stroke-width="0.001" stroke-linecap="butt" stroke-linejoin="miter" stroke="rgb(98.514678%, 17.171435%, 20%)" stroke-opacity="1" stroke-miterlimit="10" d="M 0.118219 0.118219 C 0.106773 0.129656 0.0882266 0.129656 0.0767891 0.118219 C 0.0653438 0.106773 0.0653438 0.0882266 0.0767891 0.0767891 " transform="matrix(500, 0, 0, 500, 0, 0)"/>
<path fill="none" stroke-width="0.001" stroke-linecap="butt" stroke-linejoin="miter" stroke="rgb(98.233178%, 18.714771%, 20%)" stroke-opacity="1" stroke-miterlimit="10" d="M 0.0730234 0.0730234 C 0.0855 0.0605391 0.105734 0.0605391 0.118219 0.0730234 C 0.130695 0.0855 0.130695 0.105734 0.118219 0.118219 " transform="matrix(500, 0, 0, 500, 0, 0)"/>
<path fill="none" stroke-width="0.001" stroke-linecap="butt" stroke-linejoin="miter" stroke="rgb(97.927502%, 20.253502%, 20%)" stroke-opacity="1" stroke-miterlimit="10" d="M 0.121984 0.121984 C 0.108461 0.135508 0.0865391 0.135508 0.0730234 0.121984 C 0.0595 0.108461 0.0595 0.0865391 0.0730234 0.0730234 " transform="matrix(500, 0, 0, 500, 0, 0)"/>
<path fill="none" stroke-width="0.001" stroke-linecap="butt" stroke-linejoin="miter" stroke="rgb(97.597725%, 21.787247%, 20%)" stroke-opacity="1" stroke-miterlimit="10" d="M 0.06925 0.06925 C 0.0838125 0.0546953 0.107422 0.0546953 0.121984 0.06925 C 0.136547 0.0838125 0.136547 0.107422 0.121984 0.121984 " transform="matrix(500, 0, 0, 500, 0, 0)"/>
<path fill="none" stroke-width="0.001" stroke-linecap="butt" stroke-linejoin="miter" stroke="rgb(97.243927%, 23.315631%, 20%)" stroke-opacity="1" stroke-miterlimit="10" d="M 0.12575 0.12575 C 0.110148 0.141352 0.0848516 0.141352 0.06925 0.12575 C 0.0536563 0.110148 0.0536563 0.0848516 0.06925 0.06925 " transform="matrix(500, 0, 0, 500, 0, 0)"/>
<path fill="none" stroke-width="0.001" stroke-linecap="butt" stroke-linejoin="miter" stroke="rgb(96.866197%, 24.838276%, 20%)" stroke-opacity="1" stroke-miterlimit="10" d="M 0.0654844 0.0654844 C 0.082125 0.0488437 0.109109 0.0488437 0.12575 0.0654844 C 0.142391 0.082125 0.142391 0.109109 0.12575 0.12575 " transform="matrix(500, 0, 0, 500, 0, 0)"/>
<path fill="none" stroke-width="0.001" stroke-linecap="butt" stroke-linejoin="miter" stroke="rgb(96.464626%, 26.354808%, 20%)" stroke-opacity="1" stroke-miterlimit="10" d="M 0.129516 0.129516 C 0.111836 0.147195 0.0831719 0.147195 0.0654844 0.129516 C 0.0478047 0.111836 0.0478047 0.0831719 0.0654844 0.0654844 " transform="matrix(500, 0, 0, 500, 0, 0)"/>
<path fill="none" stroke-width="0.001" stroke-linecap="butt" stroke-linejoin="miter" stroke="rgb(96.039314%, 27.864854%, 20%)" stroke-opacity="1" stroke-miterlimit="10" d="M 0.129516 0.129516 C 0.148242 0.110797 0.178594 0.110797 0.197313 0.129516 C 0.216039 0.148242 0.216039 0.178594 0.197313 0.197313 " transform="matrix(500, 0, 0, 500, 0, 0)"/>
<path fill="none" stroke-width="0.001" stroke-linecap="butt" stroke-linejoin="miter" stroke="rgb(95.590366%, 29.368042%, 20%)" stroke-opacity="1" stroke-miterlimit="10" d="M 0.268875 0.268875 C 0.249117 0.288641 0.217078 0.288641 0.197313 0.268875 C 0.177555 0.249117 0.177555 0.217078 0.197313 0.197313 " transform="matrix(500, 0, 0, 500, 0, 0)"/>
<path fill="none" stroke-width="0.001" stroke-linecap="butt" stroke-linejoin="miter" stroke="rgb(95.117892%, 30.864002%, 20%)" stroke-opacity="1" stroke-miterlimit="10" d="M 0.193547 0.193547 C 0.214352 0.172742 0.248078 0.172742 0.268875 0.193547 C 0.28968 0.214352 0.28968 0.248078 0.268875 0.268875 " transform="matrix(500, 0, 0, 500, 0, 0)"/>
<path fill="none" stroke-width="0.001" stroke-linecap="butt" stroke-linejoin="miter" stroke="rgb(94.622008%, 32.352366%, 20%)" stroke-opacity="1" stroke-miterlimit="10" d="M 0.272641 0.272641 C 0.250805 0.294484 0.215391 0.294484 0.193547 0.272641 C 0.171703 0.250805 0.171703 0.215391 0.193547 0.193547 " transform="matrix(500, 0, 0, 500, 0, 0)"/>
<path fill="none" stroke-width="0.001" stroke-linecap="butt" stroke-linejoin="miter" stroke="rgb(94.102836%, 33.832768%, 20%)" stroke-opacity="1" stroke-miterlimit="10" d="M 0.189781 0.189781 C 0.212664 0.166898 0.249758 0.166898 0.272641 0.189781 C 0.295523 0.212664 0.295523 0.249758 0.272641 0.272641 " transform="matrix(500, 0, 0, 500, 0, 0)"/>
<path fill="none" stroke-width="0.001" stroke-linecap="butt" stroke-linejoin="miter" stroke="rgb(93.560505%, 35.304843%, 20%)" stroke-opacity="1" stroke-miterlimit="10" d="M 0.189781 0.189781 C 0.165859 0.213703 0.12707 0.213703 0.103148 0.189781 C 0.0792266 0.165859 0.0792266 0.12707 0.103148 0.103148 " transform="matrix(500, 0, 0, 500, 0, 0)"/>
<path fill="none" stroke-width="0.001" stroke-linecap="butt" stroke-linejoin="miter" stroke="rgb(92.995147%, 36.76823%, 20%)" stroke-opacity="1" stroke-miterlimit="10" d="M 0.103148 0.103148 C 0.128117 0.0781875 0.168586 0.0781875 0.193547 0.103148 C 0.218508 0.128117 0.218508 0.168586 0.193547 0.193547 " transform="matrix(500, 0, 0, 500, 0, 0)"/>
<path fill="none" stroke-width="0.001" stroke-linecap="butt" stroke-linejoin="miter" stroke="rgb(92.406901%, 38.222567%, 20%)" stroke-opacity="1" stroke-miterlimit="10" d="M 0.193547 0.193547 C 0.167547 0.219547 0.125391 0.219547 0.0993828 0.193547 C 0.0733828 0.167547 0.0733828 0.125391 0.0993828 0.0993828 " transform="matrix(500, 0, 0, 500, 0, 0)"/>
<path fill="none" stroke-width="0.001" stroke-linecap="butt" stroke-linejoin="miter" stroke="rgb(91.795913%, 39.667497%, 20%)" stroke-opacity="1" stroke-miterlimit="10" d="M 0.0993828 0.0993828 C 0.12643 0.0723437 0.170273 0.0723437 0.197313 0.0993828 C 0.224359 0.12643 0.224359 0.170273 0.197313 0.197313 " transform="matrix(500, 0, 0, 500, 0, 0)"/>
<path fill="none" stroke-width="0.001" stroke-linecap="butt" stroke-linejoin="miter" stroke="rgb(91.162333%, 41.102664%, 20%)" stroke-opacity="1" stroke-miterlimit="10" d="M 0.197313 0.197313 C 0.169234 0.225398 0.123703 0.225398 0.0956172 0.197313 C 0.0675391 0.169234 0.0675391 0.123703 0.0956172 0.0956172 " transform="matrix(500, 0, 0, 500, 0, 0)"/>
<path fill="none" stroke-width="0.001" stroke-linecap="butt" stroke-linejoin="miter" stroke="rgb(90.506317%, 42.527715%, 20%)" stroke-opacity="1" stroke-miterlimit="10" d="M 0.0956172 0.0956172 C 0.124742 0.0665 0.171961 0.0665 0.201078 0.0956172 C 0.230203 0.124742 0.230203 0.171961 0.201078 0.201078 " transform="matrix(500, 0, 0, 500, 0, 0)"/>
<path fill="none" stroke-width="0.001" stroke-linecap="butt" stroke-linejoin="miter" stroke="rgb(89.828026%, 43.9423%, 20%)" stroke-opacity="1" stroke-miterlimit="10" d="M 0.201078 0.201078 C 0.170914 0.231242 0.122016 0.231242 0.0918516 0.201078 C 0.0616875 0.170914 0.0616875 0.122016 0.0918516 0.0918516 " transform="matrix(500, 0, 0, 500, 0, 0)"/>
<path fill="none" stroke-width="0.001" stroke-linecap="butt" stroke-linejoin="miter" stroke="rgb(89.127627%, 45.34607%, 20%)" stroke-opacity="1" stroke-miterlimit="10" d="M 0.0918516 0.0918516 C 0.123055 0.0606484 0.173641 0.0606484 0.204844 0.0918516 C 0.236047 0.123055 0.236047 0.173641 0.204844 0.204844 " transform="matrix(500, 0, 0, 500, 0, 0)"/>
<path fill="none" stroke-width="0.001" stroke-linecap="butt" stroke-linejoin="miter" stroke="rgb(88.405293%, 46.73868%, 20%)" stroke-opacity="1" stroke-miterlimit="10" d="M 0.204844 0.204844 C 0.172602 0.237086 0.120328 0.237086 0.0880859 0.204844 C 0.0558438 0.172602 0.0558438 0.120328 0.0880859 0.0880859 " transform="matrix(500, 0, 0, 500, 0, 0)"/>
<path fill="none" stroke-width="0.001" stroke-linecap="butt" stroke-linejoin="miter" stroke="rgb(87.661201%, 48.119786%, 20%)" stroke-opacity="1" stroke-miterlimit="10" d="M 0.0880859 0.0880859 C 0.121367 0.0548047 0.175328 0.0548047 0.208617 0.0880859 C 0.241898 0.121367 0.241898 0.175328 0.208617 0.208617 " transform="matrix(500, 0, 0, 500, 0, 0)"/>
<path fill="none" stroke-width="0.001" stroke-linecap="butt" stroke-linejoin="miter" stroke="rgb(86.895534%, 49.48905%, 20%)" stroke-opacity="1" stroke-miterlimit="10" d="M 0.332906 0.332906 C 0.298586 0.367227 0.242938 0.367227 0.208617 0.332906 C 0.174289 0.298586 0.174289 0.242938 0.208617 0.208617 " transform="matrix(500, 0, 0, 500, 0, 0)"/>
<path fill="none" stroke-width="0.001" stroke-linecap="butt" stroke-linejoin="miter" stroke="rgb(86.108482%, 50.846134%, 20%)" stroke-opacity="1" stroke-miterlimit="10" d="M 0.332906 0.332906 C 0.368273 0.297547 0.425602 0.297547 0.460969 0.332906 C 0.496328 0.368273 0.496328 0.425602 0.460969 0.460969 " transform="matrix(500, 0, 0, 500, 0, 0)"/>
<path fill="none" stroke-width="0.001" stroke-linecap="butt" stroke-linejoin="miter" stroke="rgb(85.300237%, 52.190704%, 20%)" stroke-opacity="1" stroke-miterlimit="10" d="M 0.460969 0.460969 C 0.424563 0.497367 0.365547 0.497367 0.329141 0.460969 C 0.292734 0.424563 0.292734 0.365547 0.329141 0.329141 " transform="matrix(500, 0, 0, 500, 0, 0)"/>
<path fill="none" stroke-width="0.001" stroke-linecap="butt" stroke-linejoin="miter" stroke="rgb(84.470998%, 53.52243%, 20%)" stroke-opacity="1" stroke-miterlimit="10" d="M 0.329141 0.329141 C 0.366586 0.291695 0.427289 0.291695 0.464734 0.329141 C 0.50218 0.366586 0.50218 0.427289 0.464734 0.464734 " transform="matrix(500, 0, 0, 500, 0, 0)"/>
<path fill="none" stroke-width="0.001" stroke-linecap="butt" stroke-linejoin="miter" stroke="rgb(83.62097%, 54.840982%, 20%)" stroke-opacity="1" stroke-miterlimit="10" d="M 0.464734 0.464734 C 0.42625 0.503219 0.363859 0.503219 0.325375 0.464734 C 0.286891 0.42625 0.286891 0.363859 0.325375 0.325375 " transform="matrix(500, 0, 0, 500, 0, 0)"/>
<path fill="none" stroke-width="0.001" stroke-linecap="butt" stroke-linejoin="miter" stroke="rgb(82.750362%, 56.146038%, 20%)" stroke-opacity="1" stroke-miterlimit="10" d="M 0.18225 0.18225 C 0.221773 0.142727 0.285852 0.142727 0.325375 0.18225 C 0.364898 0.221773 0.364898 0.285852 0.325375 0.325375 " transform="matrix(500, 0, 0, 500, 0, 0)"/>
<path fill="none" stroke-width="0.001" stroke-linecap="butt" stroke-linejoin="miter" stroke="rgb(81.859388%, 57.437275%, 20%)" stroke-opacity="1" stroke-miterlimit="10" d="M 0.329141 0.329141 C 0.288578 0.369703 0.222812 0.369703 0.18225 0.329141 C 0.141687 0.288578 0.141687 0.222812 0.18225 0.18225 " transform="matrix(500, 0, 0, 500, 0, 0)"/>
<path fill="none" stroke-width="0.001" stroke-linecap="butt" stroke-linejoin="miter" stroke="rgb(80.948267%, 58.714377%, 20%)" stroke-opacity="1" stroke-miterlimit="10" d="M 0.178484 0.178484 C 0.220086 0.136875 0.287539 0.136875 0.329141 0.178484 C 0.370742 0.220086 0.370742 0.287539 0.329141 0.329141 " transform="matrix(500, 0, 0, 500, 0, 0)"/>
<path fill="none" stroke-width="0.001" stroke-linecap="butt" stroke-linejoin="miter" stroke="rgb(80.017224%, 59.977028%, 20%)" stroke-opacity="1" stroke-miterlimit="10" d="M 0.332906 0.332906 C 0.290266 0.375547 0.221125 0.375547 0.178484 0.332906 C 0.135836 0.290266 0.135836 0.221125 0.178484 0.178484 " transform="matrix(500, 0, 0, 500, 0, 0)"/>
<path fill="none" stroke-width="0.001" stroke-linecap="butt" stroke-linejoin="miter" stroke="rgb(79.066488%, 61.224917%, 20%)" stroke-opacity="1" stroke-miterlimit="10" d="M 0.174719 0.174719 C 0.218398 0.131031 0.289227 0.131031 0.332906 0.174719 C 0.376594 0.218398 0.376594 0.289227 0.332906 0.332906 " transform="matrix(500, 0, 0, 500, 0, 0)"/>
<path fill="none" stroke-width="0.001" stroke-linecap="butt" stroke-linejoin="miter" stroke="rgb(78.096292%, 62.457739%, 20%)" stroke-opacity="1" stroke-miterlimit="10" d="M 0.336672 0.336672 C 0.291953 0.381398 0.219438 0.381398 0.174719 0.336672 C 0.129992 0.291953 0.129992 0.219438 0.174719 0.174719 " transform="matrix(500, 0, 0, 500, 0, 0)"/>
<path fill="none" stroke-width="0.001" stroke-linecap="butt" stroke-linejoin="miter" stroke="rgb(77.106876%, 63.675189%, 20%)" stroke-opacity="1" stroke-miterlimit="10" d="M 0.170945 0.170945 C 0.216711 0.125188 0.290906 0.125188 0.336672 0.170945 C 0.382437 0.216711 0.382437 0.290906 0.336672 0.336672 " transform="matrix(500, 0, 0, 500, 0, 0)"/>
<path fill="none" stroke-width="0.001" stroke-linecap="butt" stroke-linejoin="miter" stroke="rgb(76.098483%, 64.876968%, 20%)" stroke-opacity="1" stroke-miterlimit="10" d="M 0.340438 0.340438 C 0.293633 0.387242 0.21775 0.387242 0.170945 0.340438 C 0.124148 0.293633 0.124148 0.21775 0.170945 0.170945 " transform="matrix(500, 0, 0, 500, 0, 0)"/>
<path fill="none" stroke-width="0.001" stroke-linecap="butt" stroke-linejoin="miter" stroke="rgb(75.071361%, 66.062779%, 20%)" stroke-opacity="1" stroke-miterlimit="10" d="M 0.16718 0.16718 C 0.215023 0.119336 0.292594 0.119336 0.340438 0.16718 C 0.388281 0.215023 0.388281 0.292594 0.340438 0.340438 " transform="matrix(500, 0, 0, 500, 0, 0)"/>
<path fill="none" stroke-width="0.001" stroke-linecap="butt" stroke-linejoin="miter" stroke="rgb(74.025763%, 67.232332%, 20%)" stroke-opacity="1" stroke-miterlimit="10" d="M 0.344203 0.344203 C 0.29532 0.393094 0.216062 0.393094 0.16718 0.344203 C 0.118297 0.29532 0.118297 0.216062 0.16718 0.16718 " transform="matrix(500, 0, 0, 500, 0, 0)"/>
<path fill="none" stroke-width="0.001" stroke-linecap="butt" stroke-linejoin="miter" stroke="rgb(72.961946%, 68.385338%, 20%)" stroke-opacity="1" stroke-miterlimit="10" d="M 0.163414 0.163414 C 0.213336 0.113492 0.294281 0.113492 0.344203 0.163414 C 0.394133 0.213336 0.394133 0.294281 0.344203 0.344203 " transform="matrix(500, 0, 0, 500, 0, 0)"/>
<path fill="none" stroke-width="0.001" stroke-linecap="butt" stroke-linejoin="miter" stroke="rgb(71.880172%, 69.521513%, 20%)" stroke-opacity="1" stroke-miterlimit="10" d="M 0.347977 0.347977 C 0.297008 0.398938 0.214383 0.398938 0.163414 0.347977 C 0.112453 0.297008 0.112453 0.214383 0.163414 0.163414 " transform="matrix(500, 0, 0, 500, 0, 0)"/>
<path fill="none" stroke-width="0.001" stroke-linecap="butt" stroke-linejoin="miter" stroke="rgb(70.780708%, 70.640579%, 20%)" stroke-opacity="1" stroke-miterlimit="10" d="M 0.159648 0.159648 C 0.211656 0.107648 0.295969 0.107648 0.347977 0.159648 C 0.399977 0.211656 0.399977 0.295969 0.347977 0.347977 " transform="matrix(500, 0, 0, 500, 0, 0)"/>
<path fill="none" stroke-width="0.001" stroke-linecap="butt" stroke-linejoin="miter" stroke="rgb(69.663824%, 71.742258%, 20%)" stroke-opacity="1" stroke-miterlimit="10" d="M 0.351742 0.351742 C 0.298695 0.404781 0.212695 0.404781 0.159648 0.351742 C 0.106602 0.298695 0.106602 0.212695 0.159648 0.159648 " transform="matrix(500, 0, 0, 500, 0, 0)"/>
<path fill="none" stroke-width="0.001" stroke-linecap="butt" stroke-linejoin="miter" stroke="rgb(68.529794%, 72.826281%, 20%)" stroke-opacity="1" stroke-miterlimit="10" d="M 0.155883 0.155883 C 0.209969 0.101797 0.297656 0.101797 0.351742 0.155883 C 0.40582 0.209969 0.40582 0.297656 0.351742 0.351742 " transform="matrix(500, 0, 0, 500, 0, 0)"/>
<path fill="none" stroke-width="0.001" stroke-linecap="butt" stroke-linejoin="miter" stroke="rgb(67.378899%, 73.892381%, 20%)" stroke-opacity="1" stroke-miterlimit="10" d="M 0.355508 0.355508 C 0.300383 0.410633 0.211008 0.410633 0.155883 0.355508 C 0.100758 0.300383 0.100758 0.211008 0.155883 0.155883 " transform="matrix(500, 0, 0, 500, 0, 0)"/>
<path fill="none" stroke-width="0.001" stroke-linecap="butt" stroke-linejoin="miter" stroke="rgb(66.211421%, 74.940295%, 20%)" stroke-opacity="1" stroke-miterlimit="10" d="M 0.152117 0.152117 C 0.208281 0.0959531 0.299344 0.0959531 0.355508 0.152117 C 0.411672 0.208281 0.411672 0.299344 0.355508 0.355508 " transform="matrix(500, 0, 0, 500, 0, 0)"/>
<path fill="none" stroke-width="0.001" stroke-linecap="butt" stroke-linejoin="miter" stroke="rgb(65.027647%, 75.969765%, 20%)" stroke-opacity="1" stroke-miterlimit="10" d="M 0.359273 0.359273 C 0.30207 0.416477 0.20932 0.416477 0.152117 0.359273 C 0.0949141 0.30207 0.0949141 0.20932 0.152117 0.152117 " transform="matrix(500, 0, 0, 500, 0, 0)"/>
<path fill="none" stroke-width="0.001" stroke-linecap="butt" stroke-linejoin="miter" stroke="rgb(63.827869%, 76.980538%, 20%)" stroke-opacity="1" stroke-miterlimit="10" d="M 0.148352 0.148352 C 0.206594 0.0901016 0.301031 0.0901016 0.359273 0.148352 C 0.417516 0.206594 0.417516 0.301031 0.359273 0.359273 " transform="matrix(500, 0, 0, 500, 0, 0)"/>
<path fill="none" stroke-width="0.001" stroke-linecap="butt" stroke-linejoin="miter" stroke="rgb(62.612382%, 77.972364%, 20%)" stroke-opacity="1" stroke-miterlimit="10" d="M 0.363039 0.363039 C 0.303758 0.42232 0.207633 0.42232 0.148352 0.363039 C 0.0890625 0.303758 0.0890625 0.207633 0.148352 0.148352 " transform="matrix(500, 0, 0, 500, 0, 0)"/>
<path fill="none" stroke-width="0.001" stroke-linecap="butt" stroke-linejoin="miter" stroke="rgb(61.381486%, 78.945001%, 20%)" stroke-opacity="1" stroke-miterlimit="10" d="M 0.144586 0.144586 C 0.204906 0.0842578 0.302711 0.0842578 0.363039 0.144586 C 0.423367 0.204906 0.423367 0.302711 0.363039 0.363039 " transform="matrix(500, 0, 0, 500, 0, 0)"/>
<path fill="none" stroke-width="0.001" stroke-linecap="butt" stroke-linejoin="miter" stroke="rgb(60.135482%, 79.898209%, 20%)" stroke-opacity="1" stroke-miterlimit="10" d="M 0.366805 0.366805 C 0.305438 0.428172 0.205945 0.428172 0.144586 0.366805 C 0.0832188 0.305438 0.0832188 0.205945 0.144586 0.144586 " transform="matrix(500, 0, 0, 500, 0, 0)"/>
<path fill="none" stroke-width="0.001" stroke-linecap="butt" stroke-linejoin="miter" stroke="rgb(58.874679%, 80.831752%, 20%)" stroke-opacity="1" stroke-miterlimit="10" d="M 0.14082 0.14082 C 0.203219 0.0784141 0.304398 0.0784141 0.366805 0.14082 C 0.429211 0.203219 0.429211 0.304398 0.366805 0.366805 " transform="matrix(500, 0, 0, 500, 0, 0)"/>
<path fill="none" stroke-width="0.001" stroke-linecap="butt" stroke-linejoin="miter" stroke="rgb(57.599386%, 81.745402%, 20%)" stroke-opacity="1" stroke-miterlimit="10" d="M 0.37057 0.37057 C 0.307125 0.434016 0.204266 0.434016 0.14082 0.37057 C 0.077375 0.307125 0.077375 0.204266 0.14082 0.14082 " transform="matrix(500, 0, 0, 500, 0, 0)"/>
<path fill="none" stroke-width="0.001" stroke-linecap="butt" stroke-linejoin="miter" stroke="rgb(56.309916%, 82.638933%, 20%)" stroke-opacity="1" stroke-miterlimit="10" d="M 0.137047 0.137047 C 0.201539 0.0725625 0.306086 0.0725625 0.37057 0.137047 C 0.435055 0.201539 0.435055 0.306086 0.37057 0.37057 " transform="matrix(500, 0, 0, 500, 0, 0)"/>
<path fill="none" stroke-width="0.001" stroke-linecap="butt" stroke-linejoin="miter" stroke="rgb(55.006589%, 83.512126%, 20%)" stroke-opacity="1" stroke-miterlimit="10" d="M 0.374336 0.374336 C 0.308812 0.439867 0.202578 0.439867 0.137047 0.374336 C 0.0715234 0.308812 0.0715234 0.202578 0.137047 0.137047 " transform="matrix(500, 0, 0, 500, 0, 0)"/>
<path fill="none" stroke-width="0.001" stroke-linecap="butt" stroke-linejoin="miter" stroke="rgb(53.689723%, 84.364765%, 20%)" stroke-opacity="1" stroke-miterlimit="10" d="M 0.133281 0.133281 C 0.199852 0.0667188 0.307773 0.0667188 0.374336 0.133281 C 0.440906 0.199852 0.440906 0.307773 0.374336 0.374336 " transform="matrix(500, 0, 0, 500, 0, 0)"/>
<path fill="none" stroke-width="0.001" stroke-linecap="butt" stroke-linejoin="miter" stroke="rgb(52.359644%, 85.196641%, 20%)" stroke-opacity="1" stroke-miterlimit="10" d="M 0.378102 0.378102 C 0.3105 0.445711 0.200891 0.445711 0.133281 0.378102 C 0.0656797 0.3105 0.0656797 0.200891 0.133281 0.133281 " transform="matrix(500, 0, 0, 500, 0, 0)"/>
<path fill="none" stroke-width="0.001" stroke-linecap="butt" stroke-linejoin="miter" stroke="rgb(51.016678%, 86.007549%, 20%)" stroke-opacity="1" stroke-miterlimit="10" d="M 0.378102 0.378102 C 0.44675 0.309461 0.558047 0.309461 0.626695 0.378102 C 0.695336 0.44675 0.695336 0.558047 0.626695 0.626695 " transform="matrix(500, 0, 0, 500, 0, 0)"/>
<path fill="none" stroke-width="0.001" stroke-linecap="butt" stroke-linejoin="miter" stroke="rgb(49.661156%, 86.79729%, 20%)" stroke-opacity="1" stroke-miterlimit="10" d="M 0.879047 0.879047 C 0.809359 0.948734 0.696375 0.948734 0.626695 0.879047 C 0.557008 0.809359 0.557008 0.696375 0.626695 0.626695 " transform="matrix(500, 0, 0, 500, 0, 0)"/>
<path fill="none" stroke-width="0.001" stroke-linecap="butt" stroke-linejoin="miter" stroke="rgb(48.293413%, 87.565668%, 20%)" stroke-opacity="1" stroke-miterlimit="10" d="M 0.62293 0.62293 C 0.693648 0.552203 0.80832 0.552203 0.879047 0.62293 C 0.949773 0.693648 0.949773 0.80832 0.879047 0.879047 " transform="matrix(500, 0, 0, 500, 0, 0)"/>
<path fill="none" stroke-width="0.001" stroke-linecap="butt" stroke-linejoin="miter" stroke="rgb(46.913783%, 88.312496%, 20%)" stroke-opacity="1" stroke-miterlimit="10" d="M 0.882812 0.882812 C 0.811047 0.954578 0.694695 0.954578 0.62293 0.882812 C 0.551156 0.811047 0.551156 0.694695 0.62293 0.62293 " transform="matrix(500, 0, 0, 500, 0, 0)"/>
<path fill="none" stroke-width="0.001" stroke-linecap="butt" stroke-linejoin="miter" stroke="rgb(45.522608%, 89.037589%, 20%)" stroke-opacity="1" stroke-miterlimit="10" d="M 0.619156 0.619156 C 0.691969 0.546352 0.810008 0.546352 0.882812 0.619156 C 0.955617 0.691969 0.955617 0.810008 0.882812 0.882812 " transform="matrix(500, 0, 0, 500, 0, 0)"/>
<path fill="none" stroke-width="0.001" stroke-linecap="butt" stroke-linejoin="miter" stroke="rgb(44.120228%, 89.740768%, 20%)" stroke-opacity="1" stroke-miterlimit="10" d="M 0.886578 0.886578 C 0.812734 0.960422 0.693008 0.960422 0.619156 0.886578 C 0.545312 0.812734 0.545312 0.693008 0.619156 0.619156 " transform="matrix(500, 0, 0, 500, 0, 0)"/>
<path fill="none" stroke-width="0.001" stroke-linecap="butt" stroke-linejoin="miter" stroke="rgb(42.706991%, 90.421861%, 20%)" stroke-opacity="1" stroke-miterlimit="10" d="M 0.615391 0.615391 C 0.690281 0.540508 0.811695 0.540508 0.886578 0.615391 C 0.961469 0.690281 0.961469 0.811695 0.886578 0.886578 " transform="matrix(500, 0, 0, 500, 0, 0)"/>
<path fill="none" stroke-width="0.001" stroke-linecap="butt" stroke-linejoin="miter" stroke="rgb(41.283242%, 91.0807%, 20%)" stroke-opacity="1" stroke-miterlimit="10" d="M 0.890344 0.890344 C 0.814422 0.966273 0.69132 0.966273 0.615391 0.890344 C 0.539469 0.814422 0.539469 0.69132 0.615391 0.615391 " transform="matrix(500, 0, 0, 500, 0, 0)"/>
<path fill="none" stroke-width="0.001" stroke-linecap="butt" stroke-linejoin="miter" stroke="rgb(39.849333%, 91.717123%, 20%)" stroke-opacity="1" stroke-miterlimit="10" d="M 0.611625 0.611625 C 0.688594 0.534664 0.813383 0.534664 0.890344 0.611625 C 0.967313 0.688594 0.967313 0.813383 0.890344 0.890344 " transform="matrix(500, 0, 0, 500, 0, 0)"/>
<path fill="none" stroke-width="0.001" stroke-linecap="butt" stroke-linejoin="miter" stroke="rgb(38.405617%, 92.330973%, 20%)" stroke-opacity="1" stroke-miterlimit="10" d="M 0.894109 0.894109 C 0.816109 0.972117 0.689633 0.972117 0.611625 0.894109 C 0.533617 0.816109 0.533617 0.689633 0.611625 0.611625 " transform="matrix(500, 0, 0, 500, 0, 0)"/>
<path fill="none" stroke-width="0.001" stroke-linecap="butt" stroke-linejoin="miter" stroke="rgb(36.952448%, 92.922099%, 20%)" stroke-opacity="1" stroke-miterlimit="10" d="M 0.607859 0.607859 C 0.686906 0.528813 0.815063 0.528813 0.894109 0.607859 C 0.973156 0.686906 0.973156 0.815063 0.894109 0.894109 " transform="matrix(500, 0, 0, 500, 0, 0)"/>
<path fill="none" stroke-width="0.001" stroke-linecap="butt" stroke-linejoin="miter" stroke="rgb(35.490186%, 93.490356%, 20%)" stroke-opacity="1" stroke-miterlimit="10" d="M 0.607859 0.607859 C 0.527773 0.687945 0.39793 0.687945 0.317844 0.607859 C 0.237758 0.527773 0.237758 0.39793 0.317844 0.317844 " transform="matrix(500, 0, 0, 500, 0, 0)"/>
<path fill="none" stroke-width="0.001" stroke-linecap="butt" stroke-linejoin="miter" stroke="rgb(34.019188%, 94.035604%, 20%)" stroke-opacity="1" stroke-miterlimit="10" d="M 0.317844 0.317844 C 0.398969 0.236711 0.5305 0.236711 0.611625 0.317844 C 0.69275 0.398969 0.69275 0.5305 0.611625 0.611625 " transform="matrix(500, 0, 0, 500, 0, 0)"/>
<path fill="none" stroke-width="0.001" stroke-linecap="butt" stroke-linejoin="miter" stroke="rgb(32.539818%, 94.557709%, 20%)" stroke-opacity="1" stroke-miterlimit="10" d="M 0.611625 0.611625 C 0.529461 0.693797 0.396242 0.693797 0.314078 0.611625 C 0.231906 0.529461 0.231906 0.396242 0.314078 0.314078 " transform="matrix(500, 0, 0, 500, 0, 0)"/>
</svg>
